<svg width="445" height="37" viewBox="0 0 445 37" fill="none" xmlns="http://www.w3.org/2000/svg">
<path d="M0.490723 14.9998V0.249755H1.24072V14.9998H0.490723ZM3.49072 14.9998V0.249755H4.24072V14.9998H3.49072ZM4.99072 14.9998V0.249755H5.74072V14.9998H4.99072ZM7.99072 14.9998V0.249755H8.74072V14.9998H7.99072ZM10.9907 14.9998V0.249755H11.7407V14.9998H10.9907ZM12.4907 14.9998V0.249755H13.2407V14.9998H12.4907ZM13.9907 14.9998V0.249755H16.2407V14.9998H13.9907ZM16.9907 14.9998V0.249755H17.7407V14.9998H16.9907ZM18.4907 14.9998V0.249755H20.7407V14.9998H18.4907ZM22.9907 14.9998V0.249755H23.7407V14.9998H22.9907ZM24.4897 14.9998V0.249755H25.2397V14.9998H24.4897ZM27.4897 14.9998V0.249755H28.2397V14.9998H27.4897ZM28.9897 14.9998V0.249755H29.7397V14.9998H28.9897ZM31.9897 14.9998V0.249755H32.7397V14.9998H31.9897ZM34.9897 14.9998V0.249755H35.7397V14.9998H34.9897ZM36.4897 14.9998V0.249755H38.7397V14.9998H36.4897ZM39.4897 14.9998V0.249755H40.2397V14.9998H39.4897ZM40.9897 14.9998V0.249755H43.2397V14.9998H40.9897ZM45.4897 14.9998V0.249755H46.2397V14.9998H45.4897ZM46.9897 14.9998V0.249755H47.7397V14.9998H46.9897ZM48.4888 14.9998V0.249755H49.2388V14.9998H48.4888ZM51.4888 14.9998V0.249755H52.2388V14.9998H51.4888ZM52.9888 14.9998V0.249755H53.7388V14.9998H52.9888ZM55.9888 14.9998V0.249755H56.7388V14.9998H55.9888ZM58.9888 14.9998V0.249755H59.7388V14.9998H58.9888ZM60.4888 14.9998V0.249755H62.7388V14.9998H60.4888ZM63.4888 14.9998V0.249755H64.2388V14.9998H63.4888ZM64.9888 14.9998V0.249755H65.7388V14.9998H64.9888ZM67.9888 14.9998V0.249755H68.7388V14.9998H67.9888ZM69.4888 14.9998V0.249755H71.7388V14.9998H69.4888ZM72.4878 14.9998V0.249755H73.2378V14.9998H72.4878ZM75.4878 14.9998V0.249755H76.2378V14.9998H75.4878ZM76.9878 14.9998V0.249755H77.7378V14.9998H76.9878ZM79.9878 14.9998V0.249755H80.7378V14.9998H79.9878ZM82.9878 14.9998V0.249755H83.7378V14.9998H82.9878ZM84.4878 14.9998V0.249755H86.7378V14.9998H84.4878ZM87.4878 14.9998V0.249755H88.2378V14.9998H87.4878ZM88.9878 14.9998V0.249755H89.7378V14.9998H88.9878ZM90.4878 14.9998V0.249755H92.7378V14.9998H90.4878ZM94.9878 14.9998V0.249755H95.7378V14.9998H94.9878ZM96.4868 14.9998V0.249755H97.2368V14.9998H96.4868ZM99.4868 14.9998V0.249755H100.237V14.9998H99.4868ZM100.987 14.9998V0.249755H101.737V14.9998H100.987ZM103.987 14.9998V0.249755H104.737V14.9998H103.987ZM106.987 14.9998V0.249755H107.737V14.9998H106.987ZM108.487 14.9998V0.249755H110.737V14.9998H108.487ZM111.487 14.9998V0.249755H113.737V14.9998H111.487ZM114.487 14.9998V0.249755H115.237V14.9998H114.487ZM117.487 14.9998V0.249755H118.237V14.9998H117.487ZM118.987 14.9998V0.249755H119.737V14.9998H118.987ZM120.486 14.9998V0.249755H121.236V14.9998H120.486ZM123.486 14.9998V0.249755H124.236V14.9998H123.486ZM124.986 14.9998V0.249755H125.736V14.9998H124.986ZM127.986 14.9998V0.249755H128.736V14.9998H127.986ZM130.986 14.9998V0.249755H131.736V14.9998H130.986ZM132.486 14.9998V0.249755H134.736V14.9998H132.486ZM135.486 14.9998V0.249755H136.236V14.9998H135.486ZM136.986 14.9998V0.249755H137.736V14.9998H136.986ZM139.986 14.9998V0.249755H142.236V14.9998H139.986ZM142.986 14.9998V0.249755H143.736V14.9998H142.986ZM144.485 14.9998V0.249755H145.235V14.9998H144.485ZM147.485 14.9998V0.249755H149.735V14.9998H147.485ZM150.485 14.9998V0.249755H151.235V14.9998H150.485ZM151.985 14.9998V0.249755H154.235V14.9998H151.985ZM154.985 14.9998V0.249755H155.735V14.9998H154.985ZM156.497 14.9998V0.249755H157.247V14.9998H156.497ZM159.497 14.9998V0.249755H160.247V14.9998H159.497ZM160.997 14.9998V0.249755H161.747V14.9998H160.997ZM163.997 14.9998V0.249755H164.747V14.9998H163.997ZM166.997 14.9998V0.249755H167.747V14.9998H166.997ZM168.497 14.9998V0.249755H169.247V14.9998H168.497ZM169.997 14.9998V0.249755H170.747V14.9998H169.997ZM171.497 14.9998V0.249755H173.747V14.9998H171.497ZM174.497 14.9998V0.249755H176.747V14.9998H174.497ZM178.997 14.9998V0.249755H179.747V14.9998H178.997ZM180.496 14.9998V0.249755H181.246V14.9998H180.496ZM183.496 14.9998V0.249755H184.246V14.9998H183.496ZM184.996 14.9998V0.249755H185.746V14.9998H184.996ZM187.996 14.9998V0.249755H188.746V14.9998H187.996ZM190.996 14.9998V0.249755H191.746V14.9998H190.996ZM192.496 14.9998V0.249755H194.746V14.9998H192.496ZM195.496 14.9998V0.249755H196.246V14.9998H195.496ZM196.996 14.9998V0.249755H199.246V14.9998H196.996ZM199.996 14.9998V0.249755H200.746V14.9998H199.996ZM202.996 14.9998V0.249755H203.746V14.9998H202.996ZM204.495 14.9998V0.249755H205.245V14.9998H204.495ZM207.495 14.9998V0.249755H208.245V14.9998H207.495ZM208.995 14.9998V0.249755H209.745V14.9998H208.995ZM211.995 14.9998V0.249755H212.745V14.9998H211.995ZM214.995 14.9998V0.249755H215.745V14.9998H214.995ZM216.495 14.9998V0.249755H218.745V14.9998H216.495ZM219.495 14.9998V0.249755H220.245V14.9998H219.495ZM220.995 14.9998V0.249755H221.745V14.9998H220.995ZM222.495 14.9998V0.249755H223.245V14.9998H222.495ZM225.495 14.9998V0.249755H227.745V14.9998H225.495ZM228.494 14.9998V0.249755H229.244V14.9998H228.494ZM231.494 14.9998V0.249755H232.244V14.9998H231.494ZM232.994 14.9998V0.249755H233.744V14.9998H232.994ZM235.994 14.9998V0.249755H236.744V14.9998H235.994ZM238.994 14.9998V0.249755H239.744V14.9998H238.994ZM240.494 14.9998V0.249755H242.744V14.9998H240.494ZM243.494 14.9998V0.249755H244.244V14.9998H243.494ZM244.994 14.9998V0.249755H247.244V14.9998H244.994ZM249.494 14.9998V0.249755H250.244V14.9998H249.494ZM250.994 14.9998V0.249755H251.744V14.9998H250.994ZM252.493 14.9998V0.249755H253.243V14.9998H252.493ZM255.493 14.9998V0.249755H256.243V14.9998H255.493ZM256.993 14.9998V0.249755H257.743V14.9998H256.993ZM259.993 14.9998V0.249755H260.743V14.9998H259.993ZM262.993 14.9998V0.249755H263.743V14.9998H262.993ZM264.493 14.9998V0.249755H265.243V14.9998H264.493ZM265.993 14.9998V0.249755H266.743V14.9998H265.993ZM267.493 14.9998V0.249755H269.743V14.9998H267.493ZM270.493 14.9998V0.249755H271.243V14.9998H270.493ZM273.493 14.9998V0.249755H275.743V14.9998H273.493ZM276.492 14.9998V0.249755H277.242V14.9998H276.492ZM279.492 14.9998V0.249755H281.742V14.9998H279.492ZM282.492 14.9998V0.249755H283.242V14.9998H282.492ZM283.992 14.9998V0.249755H286.242V14.9998H283.992ZM286.992 14.9998V0.249755H287.742V14.9998H286.992ZM288.503 14.9998V0.249755H289.253V14.9998H288.503ZM291.503 14.9998V0.249755H292.253V14.9998H291.503ZM293.003 14.9998V0.249755H293.753V14.9998H293.003ZM296.003 14.9998V0.249755H296.753V14.9998H296.003ZM299.003 14.9998V0.249755H299.753V14.9998H299.003ZM300.503 14.9998V0.249755H301.253V14.9998H300.503ZM302.003 14.9998V0.249755H304.253V14.9998H302.003ZM305.003 14.9998V0.249755H305.753V14.9998H305.003ZM308.003 14.9998V0.249755H308.753V14.9998H308.003ZM309.503 14.9998V0.249755H311.753V14.9998H309.503ZM312.502 14.9998V0.249755H313.252V14.9998H312.502ZM315.502 14.9998V0.249755H316.252V14.9998H315.502ZM317.002 14.9998V0.249755H317.752V14.9998H317.002ZM320.002 14.9998V0.249755H320.752V14.9998H320.002ZM323.002 14.9998V0.249755H323.752V14.9998H323.002ZM324.502 14.9998V0.249755H326.752V14.9998H324.502ZM329.002 14.9998V0.249755H329.752V14.9998H329.002ZM330.502 14.9998V0.249755H332.752V14.9998H330.502ZM333.502 14.9998V0.249755H334.252V14.9998H333.502ZM335.002 14.9998V0.249755H335.752V14.9998H335.002ZM336.501 14.9998V0.249755H337.251V14.9998H336.501ZM339.501 14.9998V0.249755H341.751V14.9998H339.501ZM342.501 14.9998V0.249755H343.251V14.9998H342.501ZM344.001 14.9998V0.249755H346.251V14.9998H344.001ZM347.001 14.9998V0.249755H347.751V14.9998H347.001ZM348.513 14.9998V0.249755H349.263V14.9998H348.513ZM351.513 14.9998V0.249755H352.263V14.9998H351.513ZM353.013 14.9998V0.249755H353.763V14.9998H353.013ZM356.013 14.9998V0.249755H356.763V14.9998H356.013ZM359.013 14.9998V0.249755H359.763V14.9998H359.013ZM360.513 14.9998V0.249755H361.263V14.9998H360.513ZM362.013 14.9998V0.249755H362.763V14.9998H362.013ZM363.513 14.9998V0.249755H365.763V14.9998H363.513ZM366.513 14.9998V0.249755H367.263V14.9998H366.513ZM369.513 14.9998V0.249755H371.763V14.9998H369.513ZM372.512 14.9998V0.249755H373.262V14.9998H372.512ZM375.512 14.9998V0.249755H376.262V14.9998H375.512ZM377.012 14.9998V0.249755H377.762V14.9998H377.012ZM380.012 14.9998V0.249755H380.762V14.9998H380.012ZM383.012 14.9998V0.249755H383.762V14.9998H383.012ZM384.512 14.9998V0.249755H386.762V14.9998H384.512ZM387.512 14.9998V0.249755H388.262V14.9998H387.512ZM389.012 14.9998V0.249755H389.762V14.9998H389.012ZM392.012 14.9998V0.249755H392.762V14.9998H392.012ZM393.512 14.9998V0.249755H395.762V14.9998H393.512ZM396.511 14.9998V0.249755H397.261V14.9998H396.511ZM399.511 14.9998V0.249755H400.261V14.9998H399.511ZM401.011 14.9998V0.249755H401.761V14.9998H401.011ZM404.011 14.9998V0.249755H404.761V14.9998H404.011ZM407.011 14.9998V0.249755H407.761V14.9998H407.011ZM408.511 14.9998V0.249755H410.761V14.9998H408.511ZM411.511 14.9998V0.249755H413.761V14.9998H411.511ZM414.511 14.9998V0.249755H415.261V14.9998H414.511ZM416.011 14.9998V0.249755H416.761V14.9998H416.011ZM419.011 14.9998V0.249755H419.761V14.9998H419.011ZM420.51 14.9998V0.249755H421.26V14.9998H420.51ZM423.51 14.9998V0.249755H424.26V14.9998H423.51ZM425.01 14.9998V0.249755H425.76V14.9998H425.01ZM428.01 14.9998V0.249755H428.76V14.9998H428.01ZM431.01 14.9998V0.249755H431.76V14.9998H431.01ZM432.51 14.9998V0.249755H434.76V14.9998H432.51ZM435.51 14.9998V0.249755H436.26V14.9998H435.51ZM437.01 14.9998V0.249755H439.26V14.9998H437.01ZM441.51 14.9998V0.249755H442.26V14.9998H441.51ZM443.01 14.9998V0.249755H443.76V14.9998H443.01Z" fill="url(#paint0_linear_1_54)"/>
<path d="M0.490723 23.9998V9.24976H1.24072V23.9998H0.490723ZM3.49072 23.9998V9.24976H4.24072V23.9998H3.49072ZM4.99072 23.9998V9.24976H5.74072V23.9998H4.99072ZM7.99072 23.9998V9.24976H8.74072V23.9998H7.99072ZM10.9907 23.9998V9.24976H11.7407V23.9998H10.9907ZM12.4907 23.9998V9.24976H13.2407V23.9998H12.4907ZM13.9907 23.9998V9.24976H16.2407V23.9998H13.9907ZM16.9907 23.9998V9.24976H17.7407V23.9998H16.9907ZM18.4907 23.9998V9.24976H20.7407V23.9998H18.4907ZM22.9907 23.9998V9.24976H23.7407V23.9998H22.9907ZM24.4897 23.9998V9.24976H25.2397V23.9998H24.4897ZM27.4897 23.9998V9.24976H28.2397V23.9998H27.4897ZM28.9897 23.9998V9.24976H29.7397V23.9998H28.9897ZM31.9897 23.9998V9.24976H32.7397V23.9998H31.9897ZM34.9897 23.9998V9.24976H35.7397V23.9998H34.9897ZM36.4897 23.9998V9.24976H38.7397V23.9998H36.4897ZM39.4897 23.9998V9.24976H40.2397V23.9998H39.4897ZM40.9897 23.9998V9.24976H43.2397V23.9998H40.9897ZM45.4897 23.9998V9.24976H46.2397V23.9998H45.4897ZM46.9897 23.9998V9.24976H47.7397V23.9998H46.9897ZM48.4888 23.9998V9.24976H49.2388V23.9998H48.4888ZM51.4888 23.9998V9.24976H52.2388V23.9998H51.4888ZM52.9888 23.9998V9.24976H53.7388V23.9998H52.9888ZM55.9888 23.9998V9.24976H56.7388V23.9998H55.9888ZM58.9888 23.9998V9.24976H59.7388V23.9998H58.9888ZM60.4888 23.9998V9.24976H62.7388V23.9998H60.4888ZM63.4888 23.9998V9.24976H64.2388V23.9998H63.4888ZM64.9888 23.9998V9.24976H65.7388V23.9998H64.9888ZM67.9888 23.9998V9.24976H68.7388V23.9998H67.9888ZM69.4888 23.9998V9.24976H71.7388V23.9998H69.4888ZM72.4878 23.9998V9.24976H73.2378V23.9998H72.4878ZM75.4878 23.9998V9.24976H76.2378V23.9998H75.4878ZM76.9878 23.9998V9.24976H77.7378V23.9998H76.9878ZM79.9878 23.9998V9.24976H80.7378V23.9998H79.9878ZM82.9878 23.9998V9.24976H83.7378V23.9998H82.9878ZM84.4878 23.9998V9.24976H86.7378V23.9998H84.4878ZM87.4878 23.9998V9.24976H88.2378V23.9998H87.4878ZM88.9878 23.9998V9.24976H89.7378V23.9998H88.9878ZM90.4878 23.9998V9.24976H92.7378V23.9998H90.4878ZM94.9878 23.9998V9.24976H95.7378V23.9998H94.9878ZM96.4868 23.9998V9.24976H97.2368V23.9998H96.4868ZM99.4868 23.9998V9.24976H100.237V23.9998H99.4868ZM100.987 23.9998V9.24976H101.737V23.9998H100.987ZM103.987 23.9998V9.24976H104.737V23.9998H103.987ZM106.987 23.9998V9.24976H107.737V23.9998H106.987ZM108.487 23.9998V9.24976H110.737V23.9998H108.487ZM111.487 23.9998V9.24976H113.737V23.9998H111.487ZM114.487 23.9998V9.24976H115.237V23.9998H114.487ZM117.487 23.9998V9.24976H118.237V23.9998H117.487ZM118.987 23.9998V9.24976H119.737V23.9998H118.987ZM120.486 23.9998V9.24976H121.236V23.9998H120.486ZM123.486 23.9998V9.24976H124.236V23.9998H123.486ZM124.986 23.9998V9.24976H125.736V23.9998H124.986ZM127.986 23.9998V9.24976H128.736V23.9998H127.986ZM130.986 23.9998V9.24976H131.736V23.9998H130.986ZM132.486 23.9998V9.24976H134.736V23.9998H132.486ZM135.486 23.9998V9.24976H136.236V23.9998H135.486ZM136.986 23.9998V9.24976H137.736V23.9998H136.986ZM139.986 23.9998V9.24976H142.236V23.9998H139.986ZM142.986 23.9998V9.24976H143.736V23.9998H142.986ZM144.485 23.9998V9.24976H145.235V23.9998H144.485ZM147.485 23.9998V9.24976H149.735V23.9998H147.485ZM150.485 23.9998V9.24976H151.235V23.9998H150.485ZM151.985 23.9998V9.24976H154.235V23.9998H151.985ZM154.985 23.9998V9.24976H155.735V23.9998H154.985ZM156.497 23.9998V9.24976H157.247V23.9998H156.497ZM159.497 23.9998V9.24976H160.247V23.9998H159.497ZM160.997 23.9998V9.24976H161.747V23.9998H160.997ZM163.997 23.9998V9.24976H164.747V23.9998H163.997ZM166.997 23.9998V9.24976H167.747V23.9998H166.997ZM168.497 23.9998V9.24976H169.247V23.9998H168.497ZM169.997 23.9998V9.24976H170.747V23.9998H169.997ZM171.497 23.9998V9.24976H173.747V23.9998H171.497ZM174.497 23.9998V9.24976H176.747V23.9998H174.497ZM178.997 23.9998V9.24976H179.747V23.9998H178.997ZM180.496 23.9998V9.24976H181.246V23.9998H180.496ZM183.496 23.9998V9.24976H184.246V23.9998H183.496ZM184.996 23.9998V9.24976H185.746V23.9998H184.996ZM187.996 23.9998V9.24976H188.746V23.9998H187.996ZM190.996 23.9998V9.24976H191.746V23.9998H190.996ZM192.496 23.9998V9.24976H194.746V23.9998H192.496ZM195.496 23.9998V9.24976H196.246V23.9998H195.496ZM196.996 23.9998V9.24976H199.246V23.9998H196.996ZM199.996 23.9998V9.24976H200.746V23.9998H199.996ZM202.996 23.9998V9.24976H203.746V23.9998H202.996ZM204.495 23.9998V9.24976H205.245V23.9998H204.495ZM207.495 23.9998V9.24976H208.245V23.9998H207.495ZM208.995 23.9998V9.24976H209.745V23.9998H208.995ZM211.995 23.9998V9.24976H212.745V23.9998H211.995ZM214.995 23.9998V9.24976H215.745V23.9998H214.995ZM216.495 23.9998V9.24976H218.745V23.9998H216.495ZM219.495 23.9998V9.24976H220.245V23.9998H219.495ZM220.995 23.9998V9.24976H221.745V23.9998H220.995ZM222.495 23.9998V9.24976H223.245V23.9998H222.495ZM225.495 23.9998V9.24976H227.745V23.9998H225.495ZM228.494 23.9998V9.24976H229.244V23.9998H228.494ZM231.494 23.9998V9.24976H232.244V23.9998H231.494ZM232.994 23.9998V9.24976H233.744V23.9998H232.994ZM235.994 23.9998V9.24976H236.744V23.9998H235.994ZM238.994 23.9998V9.24976H239.744V23.9998H238.994ZM240.494 23.9998V9.24976H242.744V23.9998H240.494ZM243.494 23.9998V9.24976H244.244V23.9998H243.494ZM244.994 23.9998V9.24976H247.244V23.9998H244.994ZM249.494 23.9998V9.24976H250.244V23.9998H249.494ZM250.994 23.9998V9.24976H251.744V23.9998H250.994ZM252.493 23.9998V9.24976H253.243V23.9998H252.493ZM255.493 23.9998V9.24976H256.243V23.9998H255.493ZM256.993 23.9998V9.24976H257.743V23.9998H256.993ZM259.993 23.9998V9.24976H260.743V23.9998H259.993ZM262.993 23.9998V9.24976H263.743V23.9998H262.993ZM264.493 23.9998V9.24976H265.243V23.9998H264.493ZM265.993 23.9998V9.24976H266.743V23.9998H265.993ZM267.493 23.9998V9.24976H269.743V23.9998H267.493ZM270.493 23.9998V9.24976H271.243V23.9998H270.493ZM273.493 23.9998V9.24976H275.743V23.9998H273.493ZM276.492 23.9998V9.24976H277.242V23.9998H276.492ZM279.492 23.9998V9.24976H281.742V23.9998H279.492ZM282.492 23.9998V9.24976H283.242V23.9998H282.492ZM283.992 23.9998V9.24976H286.242V23.9998H283.992ZM286.992 23.9998V9.24976H287.742V23.9998H286.992ZM288.503 23.9998V9.24976H289.253V23.9998H288.503ZM291.503 23.9998V9.24976H292.253V23.9998H291.503ZM293.003 23.9998V9.24976H293.753V23.9998H293.003ZM296.003 23.9998V9.24976H296.753V23.9998H296.003ZM299.003 23.9998V9.24976H299.753V23.9998H299.003ZM300.503 23.9998V9.24976H301.253V23.9998H300.503ZM302.003 23.9998V9.24976H304.253V23.9998H302.003ZM305.003 23.9998V9.24976H305.753V23.9998H305.003ZM308.003 23.9998V9.24976H308.753V23.9998H308.003ZM309.503 23.9998V9.24976H311.753V23.9998H309.503ZM312.502 23.9998V9.24976H313.252V23.9998H312.502ZM315.502 23.9998V9.24976H316.252V23.9998H315.502ZM317.002 23.9998V9.24976H317.752V23.9998H317.002ZM320.002 23.9998V9.24976H320.752V23.9998H320.002ZM323.002 23.9998V9.24976H323.752V23.9998H323.002ZM324.502 23.9998V9.24976H326.752V23.9998H324.502ZM329.002 23.9998V9.24976H329.752V23.9998H329.002ZM330.502 23.9998V9.24976H332.752V23.9998H330.502ZM333.502 23.9998V9.24976H334.252V23.9998H333.502ZM335.002 23.9998V9.24976H335.752V23.9998H335.002ZM336.501 23.9998V9.24976H337.251V23.9998H336.501ZM339.501 23.9998V9.24976H341.751V23.9998H339.501ZM342.501 23.9998V9.24976H343.251V23.9998H342.501ZM344.001 23.9998V9.24976H346.251V23.9998H344.001ZM347.001 23.9998V9.24976H347.751V23.9998H347.001ZM348.513 23.9998V9.24976H349.263V23.9998H348.513ZM351.513 23.9998V9.24976H352.263V23.9998H351.513ZM353.013 23.9998V9.24976H353.763V23.9998H353.013ZM356.013 23.9998V9.24976H356.763V23.9998H356.013ZM359.013 23.9998V9.24976H359.763V23.9998H359.013ZM360.513 23.9998V9.24976H361.263V23.9998H360.513ZM362.013 23.9998V9.24976H362.763V23.9998H362.013ZM363.513 23.9998V9.24976H365.763V23.9998H363.513ZM366.513 23.9998V9.24976H367.263V23.9998H366.513ZM369.513 23.9998V9.24976H371.763V23.9998H369.513ZM372.512 23.9998V9.24976H373.262V23.9998H372.512ZM375.512 23.9998V9.24976H376.262V23.9998H375.512ZM377.012 23.9998V9.24976H377.762V23.9998H377.012ZM380.012 23.9998V9.24976H380.762V23.9998H380.012ZM383.012 23.9998V9.24976H383.762V23.9998H383.012ZM384.512 23.9998V9.24976H386.762V23.9998H384.512ZM387.512 23.9998V9.24976H388.262V23.9998H387.512ZM389.012 23.9998V9.24976H389.762V23.9998H389.012ZM392.012 23.9998V9.24976H392.762V23.9998H392.012ZM393.512 23.9998V9.24976H395.762V23.9998H393.512ZM396.511 23.9998V9.24976H397.261V23.9998H396.511ZM399.511 23.9998V9.24976H400.261V23.9998H399.511ZM401.011 23.9998V9.24976H401.761V23.9998H401.011ZM404.011 23.9998V9.24976H404.761V23.9998H404.011ZM407.011 23.9998V9.24976H407.761V23.9998H407.011ZM408.511 23.9998V9.24976H410.761V23.9998H408.511ZM411.511 23.9998V9.24976H413.761V23.9998H411.511ZM414.511 23.9998V9.24976H415.261V23.9998H414.511ZM416.011 23.9998V9.24976H416.761V23.9998H416.011ZM419.011 23.9998V9.24976H419.761V23.9998H419.011ZM420.51 23.9998V9.24976H421.26V23.9998H420.51ZM423.51 23.9998V9.24976H424.26V23.9998H423.51ZM425.01 23.9998V9.24976H425.76V23.9998H425.01ZM428.01 23.9998V9.24976H428.76V23.9998H428.01ZM431.01 23.9998V9.24976H431.76V23.9998H431.01ZM432.51 23.9998V9.24976H434.76V23.9998H432.51ZM435.51 23.9998V9.24976H436.26V23.9998H435.51ZM437.01 23.9998V9.24976H439.26V23.9998H437.01ZM441.51 23.9998V9.24976H442.26V23.9998H441.51ZM443.01 23.9998V9.24976H443.76V23.9998H443.01Z" fill="url(#paint1_linear_1_54)"/>
<path d="M0.490723 32.9998V18.2498H1.24072V32.9998H0.490723ZM3.49072 32.9998V18.2498H4.24072V32.9998H3.49072ZM4.99072 32.9998V18.2498H5.74072V32.9998H4.99072ZM7.99072 32.9998V18.2498H8.74072V32.9998H7.99072ZM10.9907 32.9998V18.2498H11.7407V32.9998H10.9907ZM12.4907 32.9998V18.2498H13.2407V32.9998H12.4907ZM13.9907 32.9998V18.2498H16.2407V32.9998H13.9907ZM16.9907 32.9998V18.2498H17.7407V32.9998H16.9907ZM18.4907 32.9998V18.2498H20.7407V32.9998H18.4907ZM22.9907 32.9998V18.2498H23.7407V32.9998H22.9907ZM24.4897 32.9998V18.2498H25.2397V32.9998H24.4897ZM27.4897 32.9998V18.2498H28.2397V32.9998H27.4897ZM28.9897 32.9998V18.2498H29.7397V32.9998H28.9897ZM31.9897 32.9998V18.2498H32.7397V32.9998H31.9897ZM34.9897 32.9998V18.2498H35.7397V32.9998H34.9897ZM36.4897 32.9998V18.2498H38.7397V32.9998H36.4897ZM39.4897 32.9998V18.2498H40.2397V32.9998H39.4897ZM40.9897 32.9998V18.2498H43.2397V32.9998H40.9897ZM45.4897 32.9998V18.2498H46.2397V32.9998H45.4897ZM46.9897 32.9998V18.2498H47.7397V32.9998H46.9897ZM48.4888 32.9998V18.2498H49.2388V32.9998H48.4888ZM51.4888 32.9998V18.2498H52.2388V32.9998H51.4888ZM52.9888 32.9998V18.2498H53.7388V32.9998H52.9888ZM55.9888 32.9998V18.2498H56.7388V32.9998H55.9888ZM58.9888 32.9998V18.2498H59.7388V32.9998H58.9888ZM60.4888 32.9998V18.2498H62.7388V32.9998H60.4888ZM63.4888 32.9998V18.2498H64.2388V32.9998H63.4888ZM64.9888 32.9998V18.2498H65.7388V32.9998H64.9888ZM67.9888 32.9998V18.2498H68.7388V32.9998H67.9888ZM69.4888 32.9998V18.2498H71.7388V32.9998H69.4888ZM72.4878 32.9998V18.2498H73.2378V32.9998H72.4878ZM75.4878 32.9998V18.2498H76.2378V32.9998H75.4878ZM76.9878 32.9998V18.2498H77.7378V32.9998H76.9878ZM79.9878 32.9998V18.2498H80.7378V32.9998H79.9878ZM82.9878 32.9998V18.2498H83.7378V32.9998H82.9878ZM84.4878 32.9998V18.2498H86.7378V32.9998H84.4878ZM87.4878 32.9998V18.2498H88.2378V32.9998H87.4878ZM88.9878 32.9998V18.2498H89.7378V32.9998H88.9878ZM90.4878 32.9998V18.2498H92.7378V32.9998H90.4878ZM94.9878 32.9998V18.2498H95.7378V32.9998H94.9878ZM96.4868 32.9998V18.2498H97.2368V32.9998H96.4868ZM99.4868 32.9998V18.2498H100.237V32.9998H99.4868ZM100.987 32.9998V18.2498H101.737V32.9998H100.987ZM103.987 32.9998V18.2498H104.737V32.9998H103.987ZM106.987 32.9998V18.2498H107.737V32.9998H106.987ZM108.487 32.9998V18.2498H110.737V32.9998H108.487ZM111.487 32.9998V18.2498H113.737V32.9998H111.487ZM114.487 32.9998V18.2498H115.237V32.9998H114.487ZM117.487 32.9998V18.2498H118.237V32.9998H117.487ZM118.987 32.9998V18.2498H119.737V32.9998H118.987ZM120.486 32.9998V18.2498H121.236V32.9998H120.486ZM123.486 32.9998V18.2498H124.236V32.9998H123.486ZM124.986 32.9998V18.2498H125.736V32.9998H124.986ZM127.986 32.9998V18.2498H128.736V32.9998H127.986ZM130.986 32.9998V18.2498H131.736V32.9998H130.986ZM132.486 32.9998V18.2498H134.736V32.9998H132.486ZM135.486 32.9998V18.2498H136.236V32.9998H135.486ZM136.986 32.9998V18.2498H137.736V32.9998H136.986ZM139.986 32.9998V18.2498H142.236V32.9998H139.986ZM142.986 32.9998V18.2498H143.736V32.9998H142.986ZM144.485 32.9998V18.2498H145.235V32.9998H144.485ZM147.485 32.9998V18.2498H149.735V32.9998H147.485ZM150.485 32.9998V18.2498H151.235V32.9998H150.485ZM151.985 32.9998V18.2498H154.235V32.9998H151.985ZM154.985 32.9998V18.2498H155.735V32.9998H154.985ZM156.497 32.9998V18.2498H157.247V32.9998H156.497ZM159.497 32.9998V18.2498H160.247V32.9998H159.497ZM160.997 32.9998V18.2498H161.747V32.9998H160.997ZM163.997 32.9998V18.2498H164.747V32.9998H163.997ZM166.997 32.9998V18.2498H167.747V32.9998H166.997ZM168.497 32.9998V18.2498H169.247V32.9998H168.497ZM169.997 32.9998V18.2498H170.747V32.9998H169.997ZM171.497 32.9998V18.2498H173.747V32.9998H171.497ZM174.497 32.9998V18.2498H176.747V32.9998H174.497ZM178.997 32.9998V18.2498H179.747V32.9998H178.997ZM180.496 32.9998V18.2498H181.246V32.9998H180.496ZM183.496 32.9998V18.2498H184.246V32.9998H183.496ZM184.996 32.9998V18.2498H185.746V32.9998H184.996ZM187.996 32.9998V18.2498H188.746V32.9998H187.996ZM190.996 32.9998V18.2498H191.746V32.9998H190.996ZM192.496 32.9998V18.2498H194.746V32.9998H192.496ZM195.496 32.9998V18.2498H196.246V32.9998H195.496ZM196.996 32.9998V18.2498H199.246V32.9998H196.996ZM199.996 32.9998V18.2498H200.746V32.9998H199.996ZM202.996 32.9998V18.2498H203.746V32.9998H202.996ZM204.495 32.9998V18.2498H205.245V32.9998H204.495ZM207.495 32.9998V18.2498H208.245V32.9998H207.495ZM208.995 32.9998V18.2498H209.745V32.9998H208.995ZM211.995 32.9998V18.2498H212.745V32.9998H211.995ZM214.995 32.9998V18.2498H215.745V32.9998H214.995ZM216.495 32.9998V18.2498H218.745V32.9998H216.495ZM219.495 32.9998V18.2498H220.245V32.9998H219.495ZM220.995 32.9998V18.2498H221.745V32.9998H220.995ZM222.495 32.9998V18.2498H223.245V32.9998H222.495ZM225.495 32.9998V18.2498H227.745V32.9998H225.495ZM228.494 32.9998V18.2498H229.244V32.9998H228.494ZM231.494 32.9998V18.2498H232.244V32.9998H231.494ZM232.994 32.9998V18.2498H233.744V32.9998H232.994ZM235.994 32.9998V18.2498H236.744V32.9998H235.994ZM238.994 32.9998V18.2498H239.744V32.9998H238.994ZM240.494 32.9998V18.2498H242.744V32.9998H240.494ZM243.494 32.9998V18.2498H244.244V32.9998H243.494ZM244.994 32.9998V18.2498H247.244V32.9998H244.994ZM249.494 32.9998V18.2498H250.244V32.9998H249.494ZM250.994 32.9998V18.2498H251.744V32.9998H250.994ZM252.493 32.9998V18.2498H253.243V32.9998H252.493ZM255.493 32.9998V18.2498H256.243V32.9998H255.493ZM256.993 32.9998V18.2498H257.743V32.9998H256.993ZM259.993 32.9998V18.2498H260.743V32.9998H259.993ZM262.993 32.9998V18.2498H263.743V32.9998H262.993ZM264.493 32.9998V18.2498H265.243V32.9998H264.493ZM265.993 32.9998V18.2498H266.743V32.9998H265.993ZM267.493 32.9998V18.2498H269.743V32.9998H267.493ZM270.493 32.9998V18.2498H271.243V32.9998H270.493ZM273.493 32.9998V18.2498H275.743V32.9998H273.493ZM276.492 32.9998V18.2498H277.242V32.9998H276.492ZM279.492 32.9998V18.2498H281.742V32.9998H279.492ZM282.492 32.9998V18.2498H283.242V32.9998H282.492ZM283.992 32.9998V18.2498H286.242V32.9998H283.992ZM286.992 32.9998V18.2498H287.742V32.9998H286.992ZM288.503 32.9998V18.2498H289.253V32.9998H288.503ZM291.503 32.9998V18.2498H292.253V32.9998H291.503ZM293.003 32.9998V18.2498H293.753V32.9998H293.003ZM296.003 32.9998V18.2498H296.753V32.9998H296.003ZM299.003 32.9998V18.2498H299.753V32.9998H299.003ZM300.503 32.9998V18.2498H301.253V32.9998H300.503ZM302.003 32.9998V18.2498H304.253V32.9998H302.003ZM305.003 32.9998V18.2498H305.753V32.9998H305.003ZM308.003 32.9998V18.2498H308.753V32.9998H308.003ZM309.503 32.9998V18.2498H311.753V32.9998H309.503ZM312.502 32.9998V18.2498H313.252V32.9998H312.502ZM315.502 32.9998V18.2498H316.252V32.9998H315.502ZM317.002 32.9998V18.2498H317.752V32.9998H317.002ZM320.002 32.9998V18.2498H320.752V32.9998H320.002ZM323.002 32.9998V18.2498H323.752V32.9998H323.002ZM324.502 32.9998V18.2498H326.752V32.9998H324.502ZM329.002 32.9998V18.2498H329.752V32.9998H329.002ZM330.502 32.9998V18.2498H332.752V32.9998H330.502ZM333.502 32.9998V18.2498H334.252V32.9998H333.502ZM335.002 32.9998V18.2498H335.752V32.9998H335.002ZM336.501 32.9998V18.2498H337.251V32.9998H336.501ZM339.501 32.9998V18.2498H341.751V32.9998H339.501ZM342.501 32.9998V18.2498H343.251V32.9998H342.501ZM344.001 32.9998V18.2498H346.251V32.9998H344.001ZM347.001 32.9998V18.2498H347.751V32.9998H347.001ZM348.513 32.9998V18.2498H349.263V32.9998H348.513ZM351.513 32.9998V18.2498H352.263V32.9998H351.513ZM353.013 32.9998V18.2498H353.763V32.9998H353.013ZM356.013 32.9998V18.2498H356.763V32.9998H356.013ZM359.013 32.9998V18.2498H359.763V32.9998H359.013ZM360.513 32.9998V18.2498H361.263V32.9998H360.513ZM362.013 32.9998V18.2498H362.763V32.9998H362.013ZM363.513 32.9998V18.2498H365.763V32.9998H363.513ZM366.513 32.9998V18.2498H367.263V32.9998H366.513ZM369.513 32.9998V18.2498H371.763V32.9998H369.513ZM372.512 32.9998V18.2498H373.262V32.9998H372.512ZM375.512 32.9998V18.2498H376.262V32.9998H375.512ZM377.012 32.9998V18.2498H377.762V32.9998H377.012ZM380.012 32.9998V18.2498H380.762V32.9998H380.012ZM383.012 32.9998V18.2498H383.762V32.9998H383.012ZM384.512 32.9998V18.2498H386.762V32.9998H384.512ZM387.512 32.9998V18.2498H388.262V32.9998H387.512ZM389.012 32.9998V18.2498H389.762V32.9998H389.012ZM392.012 32.9998V18.2498H392.762V32.9998H392.012ZM393.512 32.9998V18.2498H395.762V32.9998H393.512ZM396.511 32.9998V18.2498H397.261V32.9998H396.511ZM399.511 32.9998V18.2498H400.261V32.9998H399.511ZM401.011 32.9998V18.2498H401.761V32.9998H401.011ZM404.011 32.9998V18.2498H404.761V32.9998H404.011ZM407.011 32.9998V18.2498H407.761V32.9998H407.011ZM408.511 32.9998V18.2498H410.761V32.9998H408.511ZM411.511 32.9998V18.2498H413.761V32.9998H411.511ZM414.511 32.9998V18.2498H415.261V32.9998H414.511ZM416.011 32.9998V18.2498H416.761V32.9998H416.011ZM419.011 32.9998V18.2498H419.761V32.9998H419.011ZM420.51 32.9998V18.2498H421.26V32.9998H420.51ZM423.51 32.9998V18.2498H424.26V32.9998H423.51ZM425.01 32.9998V18.2498H425.76V32.9998H425.01ZM428.01 32.9998V18.2498H428.76V32.9998H428.01ZM431.01 32.9998V18.2498H431.76V32.9998H431.01ZM432.51 32.9998V18.2498H434.76V32.9998H432.51ZM435.51 32.9998V18.2498H436.26V32.9998H435.51ZM437.01 32.9998V18.2498H439.26V32.9998H437.01ZM441.51 32.9998V18.2498H442.26V32.9998H441.51ZM443.01 32.9998V18.2498H443.76V32.9998H443.01Z" fill="url(#paint2_linear_1_54)"/>
<defs>
<linearGradient id="paint0_linear_1_54" x1="0" y1="11.9998" x2="445" y2="11.9998" gradientUnits="userSpaceOnUse">
<stop stop-color="#040A2A"/>
<stop offset="1" stop-color="#4FA5A5"/>
</linearGradient>
<linearGradient id="paint1_linear_1_54" x1="0" y1="20.9998" x2="445" y2="20.9998" gradientUnits="userSpaceOnUse">
<stop stop-color="#040A2A"/>
<stop offset="1" stop-color="#4FA5A5"/>
</linearGradient>
<linearGradient id="paint2_linear_1_54" x1="0" y1="29.9998" x2="445" y2="29.9998" gradientUnits="userSpaceOnUse">
<stop stop-color="#040A2A"/>
<stop offset="1" stop-color="#4FA5A5"/>
</linearGradient>
</defs>
</svg>
